<svg width="40" height="40" viewBox="0 0 40 40" fill="none" xmlns="http://www.w3.org/2000/svg">
<path fill-rule="evenodd" clip-rule="evenodd" d="M26.5895 33.487C18.3468 33.8745 1.01982 33.7237 2.67489 22.646C4.11097 16.7802 8.75498 9.27541 14.9745 8.23299C21.1938 7.1907 26.8882 8.44148 29.9544 9.69225C33.0206 10.9432 37.2903 17.4056 35.5935 25.5359C33.8966 33.666 28.4905 33.416 26.5895 33.487Z" fill="#BAC8E3"/>
<path fill-rule="evenodd" clip-rule="evenodd" d="M17.3312 23.5112C18.6306 23.5227 20.0994 23.458 21.5262 23.0237C22.8197 22.6297 24.0864 22.1678 25.1951 21.368C26.487 20.436 27.3834 19.2346 27.7038 17.6403C27.7986 17.1683 27.7989 16.6919 27.85 16.2182C27.9224 15.546 27.9075 15.5269 27.2702 15.372C27.1299 15.3379 26.9849 15.3112 26.8408 15.3037C26.1161 15.2665 25.3909 15.2053 24.6661 15.2102C22.5496 15.2247 20.512 15.6482 18.5337 16.4051C17.656 16.7408 17.0149 17.3345 16.4972 18.0719C15.4394 19.5787 15.1361 21.2912 15.1962 23.0963C15.2073 23.4303 15.361 23.5205 15.6598 23.5141C16.1576 23.5034 16.6556 23.5112 17.3312 23.5112Z" fill="white"/>
<path fill-rule="evenodd" clip-rule="evenodd" d="M18.3185 15.8726C19.4718 15.4526 20.6486 15.1291 21.8492 14.8904C23.6189 14.5386 25.4007 14.6487 27.1819 14.7772C27.8483 14.8253 27.8687 14.8061 27.8993 14.1234C27.9039 14.0201 27.9066 13.9157 27.8979 13.8129C27.7896 12.5411 27.4556 11.3285 26.9246 10.1704C26.8391 9.98408 26.7146 9.81337 26.5942 9.64535C25.3464 7.90269 23.5746 7.14137 21.5056 7.09962C18.8116 7.0452 16.1136 7.02868 13.4349 7.4377C11.6864 7.70471 9.96662 8.05009 8.36675 8.85355C7.29077 9.39384 6.47835 10.1549 5.95893 11.2639C5.01563 13.2783 4.58074 15.3843 4.6901 17.5999C4.73966 18.6021 4.93188 19.5823 5.44016 20.4646C6.01259 21.4589 6.74318 22.2849 7.90829 22.607C8.18772 22.6842 8.45959 22.7885 8.73441 22.8818C9.05239 22.9895 9.20068 23.2045 9.16418 23.5456C9.12871 23.8763 9.0643 24.1971 8.96697 24.5178C8.82841 24.9742 8.51402 25.3449 8.33793 25.8373C9.12551 25.812 9.81538 25.6322 10.4032 25.1705C10.8755 24.7995 11.3337 24.4067 11.6291 23.8639C11.8617 23.4363 12.2046 23.2409 12.7082 23.3219C13.1168 23.3877 13.533 23.4082 13.946 23.4447C14.4608 23.4903 14.4924 23.4721 14.4844 22.9735C14.4748 22.3908 14.5093 21.8134 14.6005 21.2382C14.8045 19.9507 15.2173 18.7426 16.0121 17.695C16.6207 16.893 17.3391 16.2294 18.3185 15.8726Z" fill="white"/>
<path fill-rule="evenodd" clip-rule="evenodd" d="M33.9632 16.6091C32.362 16.1546 30.7373 15.8623 29.0893 15.6738C28.6354 15.6218 28.5787 15.672 28.5553 16.1225C28.526 16.682 28.4939 17.2407 28.3827 17.7906C28.0072 19.645 26.9557 21.0521 25.3982 22.0575C23.5038 23.2806 21.4124 23.9852 19.1515 24.1288C18.2835 24.1838 17.4147 24.2618 16.5417 24.1882C16.2755 24.1658 16.0037 24.22 15.7343 24.2225C15.4732 24.2252 15.393 24.3207 15.3958 24.5985C15.4033 25.3735 15.7508 26.04 16.0173 26.7328C16.0593 26.842 16.1652 26.9311 16.2531 27.018C17.1322 27.8874 18.1941 28.4467 19.3879 28.7057C21.2992 29.1202 23.2357 29.2886 25.1974 29.1875C26.0645 29.1428 26.9368 29.1916 27.8031 29.09C28.0859 29.0568 28.278 29.174 28.4058 29.4262C28.8742 30.3492 29.7826 30.517 30.7806 30.8332C30.6109 30.391 30.4847 30.1077 30.394 29.8134C30.2758 29.4304 30.3877 29.2533 30.7818 29.2298C31.5517 29.1837 32.296 28.9955 33.0486 28.8541C33.6392 28.7431 34.127 28.4487 34.4998 27.9651C34.9674 27.3584 35.3685 26.7239 35.7254 26.0354C36.6219 24.306 36.974 22.4982 36.8973 20.5698C36.8334 18.9643 35.9147 17.163 33.9632 16.6091Z" fill="white"/>
<path fill-rule="evenodd" clip-rule="evenodd" d="M35.7255 26.0357C35.3686 26.7243 34.9675 27.3587 34.5 27.9655C34.1272 28.449 33.6393 28.7434 33.0488 28.8545C32.2962 28.9959 31.5517 29.1841 30.7818 29.2302C30.3878 29.2536 30.2759 29.4307 30.3941 29.8138C30.4847 30.1081 30.6111 30.3913 30.7808 30.8335C29.7828 30.5173 28.8742 30.3496 28.406 29.4266C28.2782 29.1744 28.0861 29.0572 27.8033 29.0904C26.9369 29.1919 26.0647 29.1431 25.1975 29.1878C23.236 29.289 21.2994 29.1206 19.388 28.706C18.1943 28.4472 17.1324 27.8877 16.2531 27.0183C16.1653 26.9315 16.0595 26.8424 16.0175 26.7331C15.7509 26.0403 15.4035 25.3739 15.3959 24.5989C15.3932 24.3211 15.4733 24.2256 15.7345 24.2229C16.0038 24.2203 16.2756 24.1661 16.5418 24.1886C17.4149 24.2622 18.2836 24.1842 19.1516 24.1291C21.4125 23.9856 23.5039 23.281 25.3983 22.0579C26.9559 21.0525 28.0073 19.6453 28.3827 17.791C28.494 17.2411 28.526 16.6824 28.5554 16.1229C28.5788 15.6723 28.6357 15.6221 29.0895 15.6741C30.7374 15.8628 32.3621 16.155 33.9633 16.6095C35.9149 17.1634 36.8335 18.9647 36.8974 20.5702C36.9741 22.4985 36.622 24.3064 35.7255 26.0357ZM15.1963 23.0965C15.1363 21.2915 15.4395 19.5789 16.4974 18.0721C17.0151 17.3347 17.6561 16.7411 18.5338 16.4053C20.5121 15.6484 22.5497 15.2249 24.6663 15.2105C25.391 15.2055 26.1162 15.2667 26.8409 15.304C26.985 15.3114 27.1299 15.3381 27.2704 15.3722C27.9075 15.5272 27.9225 15.5462 27.85 16.2184C27.7991 16.6921 27.7988 17.1685 27.7039 17.6406C27.3835 19.2349 26.4871 20.4363 25.1952 21.3682C24.0864 22.168 22.8199 22.63 21.5262 23.0239C20.0995 23.4583 18.6306 23.5229 17.3313 23.5114C16.6557 23.5114 16.1576 23.5036 15.66 23.5144C15.3612 23.5208 15.2074 23.4305 15.1963 23.0965ZM14.6007 21.2384C14.5095 21.8136 14.475 22.3911 14.4845 22.9737C14.4926 23.4723 14.4609 23.4905 13.9463 23.4451C13.5331 23.4084 13.1169 23.3879 12.7084 23.3223C12.2048 23.2411 11.8618 23.4366 11.6292 23.8641C11.3338 24.4069 10.8756 24.7998 10.4034 25.1707C9.81551 25.6325 9.12564 25.8122 8.33819 25.8375C8.51428 25.3451 8.82854 24.9744 8.9671 24.518C9.06456 24.1974 9.12885 23.8765 9.16432 23.5458C9.20082 23.2047 9.05252 22.9897 8.73454 22.882C8.45972 22.7889 8.18785 22.6845 7.90842 22.6072C6.74345 22.2851 6.01273 21.4591 5.44029 20.4649C4.93202 19.5825 4.7398 18.6024 4.69024 17.6001C4.58087 15.3845 5.01577 13.2785 5.9592 11.2641C6.47849 10.1551 7.29091 9.39404 8.36688 8.85374C9.96675 8.05029 11.6865 7.70491 13.435 7.4379C16.1137 7.02887 18.8117 7.04539 21.5057 7.09982C23.5747 7.14156 25.3465 7.90289 26.5944 9.64555C26.7148 9.81356 26.8392 9.98427 26.9248 10.1706C27.4557 11.3287 27.7897 12.5414 27.898 13.8131C27.9068 13.9159 27.9041 14.0203 27.8996 14.1236C27.8688 14.8064 27.8485 14.8255 27.1821 14.7774C25.4008 14.649 23.619 14.5389 21.8494 14.8906C20.6489 15.1293 19.472 15.4527 18.3187 15.8728C17.3392 16.2296 16.6208 16.8932 16.0123 17.6954C15.2174 18.7428 14.8047 19.9509 14.6007 21.2384ZM37.5003 19.857C37.227 17.96 36.1915 16.5612 34.2532 15.9976C33.6761 15.8299 33.0914 15.689 32.5137 15.5232C31.389 15.2001 30.2246 15.1476 29.0731 15.0076C28.5761 14.9471 28.5653 14.9497 28.5655 14.5035C28.5659 13.1656 28.3608 11.8822 27.8652 10.6178C27.48 9.63502 26.9163 8.82721 26.1574 8.13568C24.7978 6.89669 23.1486 6.43182 21.3496 6.41223C20.3742 6.4016 19.3982 6.43618 18.4233 6.41812C16.2982 6.37868 14.196 6.58883 12.1064 6.95355C10.3751 7.2559 8.72057 7.76853 7.22366 8.72348C6.6534 9.08731 6.18316 9.53808 5.81767 10.1087C5.13754 11.1705 4.71596 12.3407 4.39401 13.5453C4.07655 14.7328 3.9718 15.9473 3.99126 17.1814C4.01073 18.4056 4.20192 19.579 4.76565 20.6692C5.26022 21.6258 5.92486 22.4445 6.90376 22.9464C7.2517 23.125 7.6355 23.2339 8.00368 23.3729C8.48647 23.5552 8.51196 23.5919 8.36789 24.0991C8.19577 24.7053 7.85846 25.232 7.5264 25.7577C7.19011 26.2901 7.31317 26.5481 7.96142 26.5685C8.56638 26.5874 9.16212 26.4925 9.73545 26.2945C10.7576 25.9415 11.5222 25.2508 12.1169 24.3757C12.3243 24.0706 12.5493 23.972 12.891 24.0171C13.2813 24.0688 13.6742 24.1024 14.0666 24.1368C14.6479 24.1878 14.6963 24.2087 14.7129 24.8108C14.7364 25.6503 15.1467 26.3596 15.4303 27.1118C15.4721 27.2229 15.5701 27.3171 15.6553 27.4064C16.6013 28.3953 17.7718 29.0041 19.0778 29.3425C20.3671 29.6768 21.6913 29.8179 23.0202 29.8654C24.4719 29.9174 25.9247 29.8845 27.3758 29.816C27.5923 29.8057 27.7674 29.8047 27.917 30.0125C28.3703 30.6425 29.0161 30.9862 29.7349 31.2519C30.1659 31.4112 30.6274 31.4156 31.0446 31.6001H31.543C31.8175 31.2933 31.8519 30.9946 31.5583 30.6662C31.4378 30.5314 31.3751 30.3431 31.2951 30.1748C31.214 30.0043 31.2713 29.8995 31.4599 29.8642C31.8272 29.7955 32.191 29.6869 32.5611 29.6587C34.313 29.5253 35.2802 28.3553 36.0452 26.9766C36.3325 26.4586 36.5446 25.8853 36.7962 25.3397C37.6061 23.5855 37.7691 21.7212 37.5003 19.857Z" fill="#3F3C44"/>
</svg>
