<svg width="21" height="20" viewBox="0 0 21 20" fill="none" xmlns="http://www.w3.org/2000/svg">
<path fill-rule="evenodd" clip-rule="evenodd" d="M0.989666 0H8.93188L12.8657 4.08146V15.6567C12.8657 16.2145 12.4226 16.6667 11.876 16.6667H0.989666C0.443089 16.6667 0 16.2145 0 15.6567V1.00995C0 0.452169 0.443089 0 0.989666 0ZM1.48468 1.51492V15.135H11.3813V6.09482H7.70677C7.29683 6.09482 6.96452 5.75569 6.96452 5.33736V1.51492H1.48468ZM8.44902 1.76754V4.5799H11.2056L8.44902 1.76754Z" fill="#3F3C44"/>
<path fill-rule="evenodd" clip-rule="evenodd" d="M5.59213 12.6455C5.26441 12.3345 5.48452 11.7828 5.93631 11.7828H7.24718C7.43552 8.88562 9.97121 6.59116 13.0716 6.59116C14.9671 6.59116 16.7114 7.45565 17.8017 8.8851C18.0379 9.19481 17.9648 9.62759 17.6385 9.85175C17.3121 10.0759 16.8561 10.0066 16.6199 9.69686C15.8011 8.62339 14.4941 7.97564 13.0716 7.97564C10.7773 7.97564 8.89527 9.65096 8.70987 11.7828H9.99492C10.4467 11.7828 10.6668 12.3345 10.3391 12.6455L7.96562 14.8979L5.59213 12.6455ZM8.89246 16.6438C8.60411 16.3769 8.59843 15.9386 8.87978 15.6649C9.16113 15.3913 9.62296 15.3859 9.91131 15.6529C10.7239 16.4053 11.8092 16.8333 12.9676 16.8333C14.8731 16.8333 16.4943 15.6776 17.0952 14.0646H15.7523C15.3005 14.0646 15.0804 13.5129 15.4081 13.2019L17.7816 10.9495L20.1551 13.2019C20.4828 13.5129 20.2627 14.0646 19.8109 14.0646H18.6193C17.9714 16.453 15.6867 18.2178 12.9676 18.2178C11.4246 18.2178 9.97484 17.6461 8.89246 16.6438Z" fill="#3F3C44"/>
</svg>
