<svg width="20" height="20" viewBox="0 0 20 20" fill="none" xmlns="http://www.w3.org/2000/svg">
<path d="M13.4374 15.5552H6.66659M4.07978 15.5552H1.83325C1.28097 15.5552 0.833252 15.1075 0.833252 14.5552V4.33301C0.833252 3.78072 1.28097 3.33301 1.83325 3.33301H12.8194C13.3716 3.33301 13.8194 3.78072 13.8194 4.33301V13.6455" stroke="#3F3C44" stroke-width="1.5"/>
<path d="M13.8193 7.15234H15.7291L18.0207 10.2079" stroke="#3F3C44" stroke-width="1.5"/>
<path d="M6.95833 14.7917C6.95833 15.6431 6.26811 16.3333 5.41667 16.3333C4.56523 16.3333 3.875 15.6431 3.875 14.7917C3.875 13.9402 4.56523 13.25 5.41667 13.25C6.26811 13.25 6.95833 13.9402 6.95833 14.7917Z" stroke="#3F3C44" stroke-width="1.5"/>
<path d="M16.5069 14.7917C16.5069 15.6431 15.8167 16.3333 14.9653 16.3333C14.1138 16.3333 13.4236 15.6431 13.4236 14.7917C13.4236 13.9402 14.1138 13.25 14.9653 13.25C15.8167 13.25 16.5069 13.9402 16.5069 14.7917Z" stroke="#3F3C44" stroke-width="1.5"/>
<path d="M13.8193 13.6455V11.208C13.8193 10.6557 14.2671 10.208 14.8193 10.208H18.1666C18.7188 10.208 19.1666 10.6557 19.1666 11.208V14.5552C19.1666 15.1075 18.7188 15.5552 18.1666 15.5552H16.4929" stroke="#3F3C44" stroke-width="1.5"/>
</svg>
