<svg width="89" height="32" viewBox="0 0 89 32" fill="none" xmlns="http://www.w3.org/2000/svg">
<g clip-path="url(#clip0)">
<path d="M16.5161 0H0V16.5161H16.5161V0Z" fill="#00B67A"/>
<path d="M34.4087 0H17.8926V16.5161H34.4087V0Z" fill="#00B67A"/>
<path d="M52.301 0H35.7849V16.5161H52.301V0Z" fill="#00B67A"/>
<path d="M70.1936 0H53.6775V16.5161H70.1936V0Z" fill="#00B67A"/>
<path d="M88.086 0H71.5698V16.5161H88.086V0Z" fill="#00B67A"/>
<path d="M8.25818 11.1312L10.77 10.4946L11.8195 13.729L8.25818 11.1312ZM14.0388 6.95055H9.61732L8.25818 2.78711L6.89904 6.95055H2.47754L6.05603 9.5312L4.69689 13.6946L8.27539 11.114L10.4775 9.5312L14.0388 6.95055Z" fill="white"/>
<path d="M26.1505 11.1312L28.6623 10.4946L29.7118 13.729L26.1505 11.1312ZM31.9312 6.95055H27.5097L26.1505 2.78711L24.7914 6.95055H20.3699L23.9484 9.5312L22.5892 13.6946L26.1677 11.114L28.3699 9.5312L31.9312 6.95055Z" fill="white"/>
<path d="M44.0431 11.1312L46.5549 10.4946L47.6044 13.729L44.0431 11.1312ZM49.8237 6.95055H45.4022L44.0431 2.78711L42.684 6.95055H38.2625L41.8409 9.5312L40.4818 13.6946L44.0603 11.114L46.2624 9.5312L49.8237 6.95055Z" fill="white"/>
<path d="M61.9354 11.1312L64.4473 10.4946L65.4967 13.729L61.9354 11.1312ZM67.7161 6.95055H63.2946L61.9354 2.78711L60.5763 6.95055H56.1548L59.7333 9.5312L58.3741 13.6946L61.9526 11.114L64.1548 9.5312L67.7161 6.95055Z" fill="white"/>
<path d="M79.828 11.1312L82.3398 10.4946L83.3893 13.729L79.828 11.1312ZM85.6087 6.95055H81.1871L79.828 2.78711L78.4689 6.95055H74.0474L77.6259 9.5312L76.2667 13.6946L79.8452 11.114L82.0474 9.5312L85.6087 6.95055Z" fill="white"/>
<g clip-path="url(#clip1)">
<path d="M14.7393 23.1143H20.4182V24.173H18.1853V30.1246H16.9574V24.173H14.7344V23.1143H14.7393ZM20.1756 25.0487H21.2253V26.0282H21.2451C21.2797 25.8897 21.3441 25.7561 21.4382 25.6275C21.5322 25.4989 21.6461 25.3752 21.7798 25.2713C21.9135 25.1624 22.062 25.0783 22.2254 25.0091C22.3888 24.9448 22.5571 24.9101 22.7254 24.9101C22.8542 24.9101 22.9482 24.9151 22.9978 24.92C23.0473 24.925 23.0968 24.9349 23.1512 24.9398V26.0183C23.072 26.0035 22.9928 25.9936 22.9086 25.9837C22.8245 25.9738 22.7453 25.9689 22.666 25.9689C22.4779 25.9689 22.2997 26.0084 22.1313 26.0826C21.963 26.1569 21.8194 26.2706 21.6956 26.4141C21.5718 26.5625 21.4728 26.7406 21.3986 26.9583C21.3243 27.176 21.2896 27.4234 21.2896 27.7054V30.1197H20.1707V25.0487H20.1756ZM28.2954 30.1246H27.1963V29.4171H27.1765C27.0379 29.6744 26.8349 29.8772 26.5625 30.0306C26.2902 30.184 26.013 30.2631 25.7308 30.2631C25.0624 30.2631 24.5772 30.0999 24.2801 29.7684C23.983 29.4369 23.8345 28.9373 23.8345 28.2694V25.0487H24.9534V28.1605C24.9534 28.6058 25.0376 28.9224 25.2109 29.1055C25.3792 29.2885 25.6218 29.3825 25.9288 29.3825C26.1665 29.3825 26.3596 29.3479 26.518 29.2737C26.6764 29.1995 26.8052 29.1055 26.8992 28.9818C26.9982 28.863 27.0676 28.7146 27.1121 28.5464C27.1567 28.3782 27.1765 28.1952 27.1765 27.9973V25.0536H28.2954V30.1246ZM30.2016 28.4969C30.2363 28.8235 30.36 29.051 30.5729 29.1846C30.7908 29.3132 31.0482 29.3825 31.3503 29.3825C31.4542 29.3825 31.5731 29.3726 31.7067 29.3578C31.8404 29.3429 31.9691 29.3083 32.083 29.2638C32.2018 29.2192 32.2959 29.15 32.3751 29.0609C32.4494 28.9719 32.4841 28.8581 32.4791 28.7146C32.4742 28.5712 32.4197 28.4524 32.3207 28.3634C32.2217 28.2694 32.0979 28.2001 31.9444 28.1407C31.7909 28.0863 31.6176 28.0368 31.4196 27.9973C31.2215 27.9577 31.0235 27.9132 30.8205 27.8686C30.6125 27.8241 30.4096 27.7647 30.2165 27.7004C30.0234 27.6361 29.8501 27.5471 29.6966 27.4333C29.5431 27.3244 29.4193 27.181 29.3302 27.0078C29.2361 26.8346 29.1916 26.6219 29.1916 26.3646C29.1916 26.0876 29.2609 25.86 29.3946 25.672C29.5283 25.484 29.7015 25.3356 29.9045 25.2218C30.1125 25.108 30.3402 25.0289 30.5927 24.9794C30.8452 24.9349 31.0879 24.9101 31.3156 24.9101C31.578 24.9101 31.8305 24.9398 32.0682 24.9942C32.3058 25.0487 32.5237 25.1377 32.7168 25.2663C32.9099 25.39 33.0683 25.5533 33.197 25.7512C33.3257 25.9491 33.405 26.1915 33.4396 26.4735H32.2712C32.2167 26.2063 32.0979 26.0233 31.9048 25.9342C31.7117 25.8402 31.4889 25.7957 31.2413 25.7957C31.1621 25.7957 31.068 25.8007 30.9591 25.8155C30.8502 25.8303 30.7512 25.8551 30.6522 25.8897C30.5581 25.9243 30.4789 25.9788 30.4096 26.048C30.3452 26.1173 30.3105 26.2063 30.3105 26.3201C30.3105 26.4586 30.36 26.5675 30.4541 26.6516C30.5482 26.7357 30.672 26.805 30.8254 26.8643C30.9789 26.9187 31.1522 26.9682 31.3503 27.0078C31.5483 27.0474 31.7513 27.0919 31.9592 27.1364C32.1622 27.181 32.3603 27.2403 32.5583 27.3046C32.7564 27.369 32.9297 27.458 33.0831 27.5718C33.2366 27.6856 33.3604 27.8241 33.4545 27.9923C33.5485 28.1605 33.5981 28.3733 33.5981 28.6206C33.5981 28.9224 33.5287 29.1747 33.3901 29.3875C33.2515 29.5952 33.0732 29.7684 32.8554 29.897C32.6375 30.0257 32.39 30.1246 32.1226 30.184C31.8553 30.2433 31.5879 30.273 31.3255 30.273C31.0037 30.273 30.7066 30.2384 30.4343 30.1642C30.162 30.09 29.9243 29.9811 29.7263 29.8377C29.5283 29.6892 29.3698 29.5062 29.2559 29.2885C29.1421 29.0708 29.0827 28.8086 29.0728 28.5068H30.2016V28.4969ZM33.8951 25.0487H34.7418V23.5249H35.8607V25.0487H36.8707V25.8848H35.8607V28.5959C35.8607 28.7146 35.8657 28.8136 35.8756 28.9026C35.8855 28.9867 35.9102 29.0609 35.9449 29.1203C35.9795 29.1797 36.034 29.2242 36.1083 29.2539C36.1825 29.2836 36.2766 29.2984 36.4053 29.2984C36.4845 29.2984 36.5638 29.2984 36.643 29.2935C36.7222 29.2885 36.8014 29.2786 36.8806 29.2588V30.1246C36.7569 30.1395 36.6331 30.1493 36.5192 30.1642C36.4004 30.179 36.2816 30.184 36.1578 30.184C35.8607 30.184 35.6231 30.1543 35.4448 30.0999C35.2666 30.0455 35.123 29.9613 35.024 29.8525C34.92 29.7437 34.8556 29.6101 34.816 29.4468C34.7814 29.2836 34.7566 29.0956 34.7517 28.8878V25.8947H33.905V25.0487H33.8951ZM37.6629 25.0487H38.7224V25.7363H38.7423C38.9007 25.4395 39.1185 25.2317 39.4007 25.1031C39.683 24.9745 39.985 24.9101 40.3167 24.9101C40.7177 24.9101 41.0643 24.9794 41.3614 25.1229C41.6584 25.2614 41.906 25.4543 42.104 25.7017C42.3021 25.9491 42.4457 26.236 42.5447 26.5625C42.6437 26.8891 42.6932 27.2403 42.6932 27.6114C42.6932 27.9527 42.6487 28.2842 42.5595 28.6008C42.4704 28.9224 42.3367 29.2044 42.1585 29.4518C41.9803 29.6991 41.7525 29.8921 41.4753 30.0405C41.198 30.1889 40.8762 30.2631 40.4999 30.2631C40.3365 30.2631 40.1731 30.2483 40.0097 30.2186C39.8463 30.1889 39.6879 30.1395 39.5394 30.0751C39.3908 30.0108 39.2473 29.9267 39.1235 29.8228C38.9948 29.7189 38.8908 29.6002 38.8017 29.4666H38.7819V31.9996H37.6629V25.0487ZM41.5743 27.5916C41.5743 27.364 41.5446 27.1414 41.4852 26.9237C41.4257 26.706 41.3366 26.518 41.2178 26.3498C41.099 26.1816 40.9504 26.048 40.7772 25.9491C40.5989 25.8501 40.3959 25.7957 40.1682 25.7957C39.6978 25.7957 39.3413 25.959 39.1037 26.2855C38.866 26.612 38.7472 27.0474 38.7472 27.5916C38.7472 27.8488 38.7769 28.0863 38.8413 28.304C38.9056 28.5217 38.9948 28.7097 39.1235 28.868C39.2473 29.0263 39.3958 29.15 39.5691 29.239C39.7424 29.333 39.9454 29.3776 40.1731 29.3776C40.4306 29.3776 40.6435 29.3231 40.8217 29.2192C41 29.1154 41.1435 28.9768 41.2574 28.8136C41.3713 28.6454 41.4555 28.4574 41.505 28.2446C41.5495 28.0319 41.5743 27.8142 41.5743 27.5916ZM43.5498 23.1143H44.6687V24.173H43.5498V23.1143ZM43.5498 25.0487H44.6687V30.1246H43.5498V25.0487ZM45.6688 23.1143H46.7878V30.1246H45.6688V23.1143ZM50.2189 30.2631C49.8129 30.2631 49.4515 30.1939 49.1346 30.0603C48.8177 29.9267 48.5504 29.7387 48.3276 29.5062C48.1097 29.2687 47.9414 28.9867 47.8275 28.6602C47.7136 28.3337 47.6542 27.9725 47.6542 27.5817C47.6542 27.1958 47.7136 26.8396 47.8275 26.5131C47.9414 26.1865 48.1097 25.9045 48.3276 25.6671C48.5454 25.4296 48.8177 25.2466 49.1346 25.113C49.4515 24.9794 49.8129 24.9101 50.2189 24.9101C50.6249 24.9101 50.9863 24.9794 51.3032 25.113C51.6201 25.2466 51.8874 25.4346 52.1102 25.6671C52.3281 25.9045 52.4964 26.1865 52.6103 26.5131C52.7242 26.8396 52.7836 27.1958 52.7836 27.5817C52.7836 27.9725 52.7242 28.3337 52.6103 28.6602C52.4964 28.9867 52.3281 29.2687 52.1102 29.5062C51.8924 29.7437 51.6201 29.9267 51.3032 30.0603C50.9863 30.1939 50.6249 30.2631 50.2189 30.2631ZM50.2189 29.3776C50.4664 29.3776 50.6843 29.3231 50.8675 29.2192C51.0507 29.1154 51.1992 28.9768 51.318 28.8086C51.4369 28.6404 51.521 28.4475 51.5805 28.2347C51.6349 28.022 51.6646 27.8043 51.6646 27.5817C51.6646 27.364 51.6349 27.1513 51.5805 26.9336C51.526 26.7159 51.4369 26.5279 51.318 26.3597C51.1992 26.1915 51.0507 26.0579 50.8675 25.954C50.6843 25.8501 50.4664 25.7957 50.2189 25.7957C49.9713 25.7957 49.7535 25.8501 49.5703 25.954C49.3871 26.0579 49.2386 26.1964 49.1198 26.3597C49.0009 26.5279 48.9168 26.7159 48.8573 26.9336C48.8029 27.1513 48.7732 27.364 48.7732 27.5817C48.7732 27.8043 48.8029 28.022 48.8573 28.2347C48.9118 28.4475 49.0009 28.6404 49.1198 28.8086C49.2386 28.9768 49.3871 29.1154 49.5703 29.2192C49.7535 29.3281 49.9713 29.3776 50.2189 29.3776ZM53.1103 25.0487H53.957V23.5249H55.0759V25.0487H56.0859V25.8848H55.0759V28.5959C55.0759 28.7146 55.0809 28.8136 55.0908 28.9026C55.1007 28.9867 55.1254 29.0609 55.1601 29.1203C55.1947 29.1797 55.2492 29.2242 55.3235 29.2539C55.3977 29.2836 55.4918 29.2984 55.6205 29.2984C55.6998 29.2984 55.779 29.2984 55.8582 29.2935C55.9374 29.2885 56.0166 29.2786 56.0959 29.2588V30.1246C55.9721 30.1395 55.8483 30.1493 55.7344 30.1642C55.6156 30.179 55.4968 30.184 55.373 30.184C55.0759 30.184 54.8383 30.1543 54.66 30.0999C54.4818 30.0455 54.3382 29.9613 54.2392 29.8525C54.1352 29.7437 54.0709 29.6101 54.0312 29.4468C53.9966 29.2836 53.9718 29.0956 53.9669 28.8878V25.8947H53.1202V25.0487H53.1103Z" fill="#191919"/>
<path d="M13.4323 23.1144H8.30299L6.71864 18.2363L5.12934 23.1144L0 23.1094L4.15397 26.1273L2.56467 31.0004L6.71864 27.9875L10.8677 31.0004L9.28331 26.1273L13.4323 23.1144Z" fill="#00B67A"/>
<path d="M9.6399 27.2302L9.28342 26.127L6.71875 27.9871L9.6399 27.2302Z" fill="#005128"/>
</g>
</g>
<defs>
<clipPath id="clip0">
<rect width="88.086" height="32" fill="white"/>
</clipPath>
<clipPath id="clip1">
<rect width="56.086" height="13.7634" fill="white" transform="translate(0 18.2363)"/>
</clipPath>
</defs>
</svg>
